<svg width="21" height="20" viewBox="0 0 21 20" fill="none" xmlns="http://www.w3.org/2000/svg">
<path d="M18.2609 1.73913C18.503 1.73913 18.7353 1.83074 18.9065 1.99382C19.0777 2.1569 19.1739 2.37807 19.1739 2.6087V17.3913C19.1739 17.6219 19.0777 17.8431 18.9065 18.0062C18.7353 18.1693 18.503 18.2609 18.2609 18.2609H2.73913C2.49698 18.2609 2.26474 18.1693 2.09351 18.0062C1.92228 17.8431 1.82609 17.6219 1.82609 17.3913V2.6087C1.82609 2.37807 1.92228 2.1569 2.09351 1.99382C2.26474 1.83074 2.49698 1.73913 2.73913 1.73913H18.2609ZM18.2609 0H2.73913C2.01267 0 1.31596 0.274844 0.802273 0.764069C0.288586 1.25329 0 1.91683 0 2.6087L0 17.3913C0 18.0832 0.288586 18.7467 0.802273 19.2359C1.31596 19.7252 2.01267 20 2.73913 20H18.2609C18.9873 20 19.684 19.7252 20.1977 19.2359C20.7114 18.7467 21 18.0832 21 17.3913V2.6087C21 1.91683 20.7114 1.25329 20.1977 0.764069C19.684 0.274844 18.9873 0 18.2609 0V0Z" fill="white" fill-opacity="0.4"/>
</svg>
