<svg width="7" height="12" viewBox="0 0 7 12" fill="none" xmlns="http://www.w3.org/2000/svg">
<path d="M0.15889 6.34088L6.06761 11.8509C6.1703 11.9461 6.30937 11.9996 6.45436 11.9996C6.59934 11.9996 6.73841 11.9461 6.84111 11.8509C6.89146 11.8044 6.93142 11.7491 6.95869 11.6882C6.98596 11.6272 7 11.5619 7 11.4959C7 11.4299 6.98596 11.3645 6.95869 11.3036C6.93142 11.2427 6.89146 11.1874 6.84111 11.1409L1.3084 6.00088L6.84111 0.830881C6.89146 0.7844 6.93142 0.729099 6.95869 0.668169C6.98596 0.607239 7 0.541888 7 0.475882C7 0.409876 6.98596 0.344523 6.95869 0.283593C6.93142 0.222664 6.89146 0.167363 6.84111 0.120881C6.73358 0.0360643 6.59506 -0.00691374 6.45436 0.000881147C6.38391 8.17193e-05 6.31406 0.0130144 6.2493 0.0388479C6.18455 0.0646814 6.12631 0.102843 6.07835 0.150881L0.15889 5.63088C0.108544 5.67736 0.068582 5.73266 0.0413113 5.79359C0.0140406 5.85452 6.36445e-07 5.91988 6.30675e-07 5.98588C6.24904e-07 6.05189 0.0140405 6.11724 0.0413112 6.17817C0.0685819 6.2391 0.108544 6.2944 0.15889 6.34088Z" fill="white"/>
</svg>
